<?xml version="1.0" encoding="iso-8859-1"?>
<!-- Generator: Adobe Illustrator 19.0.0, SVG Export Plug-In . SVG Version: 6.00 Build 0)  -->
<svg version="1.1" id="Capa_1" xmlns="http://www.w3.org/2000/svg" xmlns:xlink="http://www.w3.org/1999/xlink" x="0px" y="0px"
	 viewBox="0 0 489.2 489.2" style="enable-background:new 0 0 489.2 489.2;" xml:space="preserve">
<g>
	<g>
		<g>
			<path d="M39.5,377.35h160.9v44.1H169c-5.2,0-9.5,4.2-9.5,9.5v27.5c0,5.2,4.2,9.5,9.5,9.5h151.2c5.2,0,9.5-4.2,9.5-9.5v-27.5
				c0-5.2-4.2-9.5-9.5-9.5h-31.4v-44.1h160.9c21.8,0,39.5-17.7,39.5-39.5V60.75c0-21.8-17.7-39.5-39.5-39.5H39.5
				C17.7,21.25,0,38.95,0,60.75v277.1C0,359.65,17.7,377.35,39.5,377.35z M53.9,75.15h381.4v248H53.9V75.15z M244.6,104.65
				c-52.1,0-94.5,42.4-94.5,94.5s42.4,94.5,94.5,94.5s94.5-42.4,94.5-94.5S296.7,104.65,244.6,104.65z M216.7,134.45
				c-5.8,8-11.3,18.1-15.1,30.5H183C190.6,151.45,202.4,140.65,216.7,134.45z M177.1,219.05c-1.9-6.3-2.9-13-2.9-20
				c0-6.9,1-13.6,2.9-20h21.2c-1,6.2-1.6,12.8-1.6,20s0.6,13.8,1.6,20H177.1z M183,233.25h18.6c3.8,12.4,9.4,22.5,15.1,30.5
				C202.4,257.55,190.6,246.75,183,233.25z M237.5,266.45c-6.8-6.9-15.4-17.8-20.9-33.2h20.9V266.45z M237.5,219.05h-24.8
				c-1.2-6.1-1.9-12.8-1.9-20s0.7-13.8,1.9-20h24.9v40H237.5z M237.5,164.95h-21c5.6-15.5,14.2-26.5,21-33.3V164.95z M306.2,164.95
				h-18.6c-3.8-12.4-9.4-22.5-15.1-30.5C286.8,140.65,298.6,151.45,306.2,164.95z M251.7,131.75c6.8,6.9,15.4,17.8,20.9,33.2h-20.9
				V131.75z M251.7,179.15h24.8c1.2,6.1,1.9,12.8,1.9,20s-0.7,13.8-1.9,20h-24.9v-40H251.7z M251.7,233.25h21
				c-5.6,15.5-14.2,26.5-21,33.3V233.25z M272.5,263.75c5.8-8,11.3-18.1,15.1-30.5h18.6C298.6,246.75,286.8,257.55,272.5,263.75z
				 M315,199.05c0,6.9-1,13.6-2.9,20h-21.2c1-6.2,1.6-12.8,1.6-20s-0.6-13.8-1.6-20h21.2C314,185.45,315,192.15,315,199.05z"/>
		</g>
	</g>
</g>
<g>
</g>
<g>
</g>
<g>
</g>
<g>
</g>
<g>
</g>
<g>
</g>
<g>
</g>
<g>
</g>
<g>
</g>
<g>
</g>
<g>
</g>
<g>
</g>
<g>
</g>
<g>
</g>
<g>
</g>
</svg>
