<?xml version="1.0" encoding="utf-8"?><svg viewBox="0 0 600 600" xmlns="http://www.w3.org/2000/svg" xmlns:xlink="http://www.w3.org/1999/xlink"><style>:root>svg{display:none}:root>svg:target{display:block}</style><svg viewBox="0 0 24 24" id="about" xmlns="http://www.w3.org/2000/svg"><path fill-rule="evenodd" d="M12 2.5a5.5 5.5 0 00-3.096 10.047 9.005 9.005 0 00-5.9 8.18.75.75 0 001.5.045 7.5 7.5 0 0114.993 0 .75.75 0 101.499-.044 9.005 9.005 0 00-5.9-8.181A5.5 5.5 0 0012 2.5zM8 8a4 4 0 118 0 4 4 0 01-8 0z"/></svg><svg data-name="Livello 1" viewBox="0 0 128 128" id="contacts" xmlns="http://www.w3.org/2000/svg"><path d="M116.73 31.83a3 3 0 00-4.2-.61L64.14 67.34a1 1 0 01-1.2 0L15.5 31.06a3 3 0 10-3.64 4.77l37.3 28.53-36.89 27.8A3 3 0 1015.88 97l38.23-28.86 5.18 4a7 7 0 008.43.06l5.44-4.06L111.84 97a3 3 0 103.59-4.81L78.17 64.35 116.12 36a3 3 0 00.61-4.17z"/><path d="M113 19H15A15 15 0 000 34v60a15 15 0 0015 15h98a15 15 0 0015-15V34a15 15 0 00-15-15zm9 75a9 9 0 01-9 9H15a9 9 0 01-9-9V34a9 9 0 019-9h98a9 9 0 019 9z"/></svg><svg viewBox="0 0 48 48" id="gh" xmlns="http://www.w3.org/2000/svg"><path d="M24 0C10.747 0 0 11.017 0 24.608c0 10.872 6.877 20.096 16.413 23.35 1.2.227 1.64-.534 1.64-1.184 0-.587-.023-2.525-.033-4.581-6.677 1.488-8.086-2.904-8.086-2.904-1.092-2.844-2.665-3.6-2.665-3.6-2.177-1.528.165-1.496.165-1.496 2.41.173 3.679 2.535 3.679 2.535 2.14 3.762 5.614 2.675 6.984 2.046.215-1.59.837-2.676 1.523-3.29-5.33-.623-10.934-2.733-10.934-12.162 0-2.686.937-4.881 2.473-6.605-.25-.62-1.071-3.122.232-6.512 0 0 2.016-.661 6.602 2.523 1.914-.546 3.968-.82 6.007-.828 2.04.009 4.095.282 6.013.828 4.58-3.184 6.593-2.523 6.593-2.523 1.306 3.39.484 5.893.235 6.512 1.54 1.724 2.47 3.919 2.47 6.605 0 9.452-5.614 11.533-10.959 12.142.861.764 1.628 2.261 1.628 4.557 0 3.292-.027 5.942-.027 6.753 0 .655.432 1.422 1.648 1.18C41.132 44.697 48 35.476 48 24.608 48 11.017 37.255 0 24 0z"/><path d="M9.16 35.162c-.052.121-.24.158-.41.075-.173-.08-.271-.245-.215-.366.052-.125.24-.16.413-.076.174.08.273.246.213.367zm.971 1.101c-.114.108-.337.058-.489-.113-.157-.17-.186-.397-.07-.506.118-.108.334-.057.491.113.157.172.188.397.068.506zm.945 1.403c-.147.104-.387.007-.535-.21-.147-.217-.147-.476.003-.58.149-.105.385-.011.535.204.147.22.147.48-.003.586zm1.294 1.356c-.132.147-.411.108-.616-.093-.21-.197-.268-.476-.136-.623.133-.148.414-.106.62.093.208.197.272.477.132.623zm1.785.788c-.058.19-.327.277-.599.196-.27-.084-.448-.307-.393-.5.056-.192.327-.283.6-.196.27.083.448.305.392.5zm1.96.145c.007.201-.223.368-.508.371-.286.007-.518-.156-.521-.353 0-.203.225-.368.511-.373.285-.006.518.155.518.355zm1.825-.315c.034.195-.164.397-.447.45-.278.052-.535-.07-.57-.264-.035-.2.166-.402.444-.454.283-.05.537.068.573.267z"/></svg><svg viewBox="0 0 247.789 247.789" id="home" xmlns="http://www.w3.org/2000/svg"><path d="M223.779 122.895a6 6 0 00-6 6V235.79h-64.384v-67.102a6 6 0 00-6-6h-47a6 6 0 00-6 6v53.207a6 6 0 0012 0v-47.207h35v61.102H30.01V88.929l93.884-75.239 96.132 77.04a6 6 0 107.504-9.364L127.646 1.318a5.998 5.998 0 00-7.504 0L20.258 81.366a5.999 5.999 0 00-2.248 4.682v155.741a6 6 0 006 6h199.769a6 6 0 006-6V128.895a6 6 0 00-6-6z"/></svg><svg viewBox="0 0 600 600" id="insta" xmlns="http://www.w3.org/2000/svg"><path d="M300 44c-69.526 0-78.244.294-105.549 1.54-27.248 1.244-45.858 5.57-62.142 11.9-16.834 6.542-31.11 15.295-45.342 29.527C72.735 101.2 63.98 115.475 57.439 132.31c-6.329 16.283-10.656 34.892-11.9 62.14C44.295 221.757 44 230.474 44 300c0 69.524.294 78.242 1.54 105.547 1.243 27.248 5.57 45.857 11.9 62.14 6.541 16.835 15.295 31.111 29.527 45.344 14.231 14.232 28.508 22.985 45.342 29.528 16.284 6.327 34.894 10.655 62.142 11.898 27.305 1.246 36.023 1.54 105.549 1.54 69.524 0 78.242-.294 105.547-1.54 27.248-1.243 45.858-5.57 62.141-11.898 16.834-6.543 31.11-15.296 45.344-29.528 14.231-14.233 22.985-28.509 29.527-45.343 6.328-16.284 10.656-34.893 11.899-62.141 1.245-27.305 1.54-36.023 1.54-105.548 0-69.526-.295-78.243-1.54-105.548-1.243-27.249-5.571-45.858-11.899-62.141-6.542-16.835-15.296-31.111-29.527-45.343-14.233-14.232-28.51-22.985-45.344-29.527-16.283-6.33-34.893-10.656-62.14-11.9C378.241 44.294 369.523 44 300 44zm0 46.126c68.354 0 76.45.26 103.445 1.492 24.96 1.14 38.514 5.31 47.535 8.815 11.95 4.644 20.477 10.192 29.435 19.15 8.959 8.957 14.506 17.486 19.15 29.435 3.506 9.02 7.676 22.575 8.815 47.535 1.231 26.994 1.492 35.091 1.492 103.446 0 68.354-.26 76.451-1.492 103.445-1.139 24.96-5.31 38.515-8.815 47.536-4.644 11.949-10.191 20.477-19.15 29.435-8.958 8.958-17.486 14.506-29.435 19.15-9.02 3.506-22.576 7.676-47.535 8.814-26.99 1.232-35.086 1.493-103.445 1.493-68.36 0-76.455-.261-103.447-1.493-24.96-1.138-38.514-5.308-47.535-8.814-11.95-4.644-20.477-10.192-29.436-19.15-8.958-8.958-14.506-17.486-19.149-29.435-3.506-9.021-7.676-22.576-8.815-47.536-1.232-26.994-1.492-35.09-1.492-103.445 0-68.355.26-76.452 1.492-103.446 1.139-24.96 5.31-38.515 8.815-47.535 4.643-11.949 10.191-20.478 19.15-29.435 8.958-8.958 17.486-14.506 29.435-19.15 9.02-3.505 22.576-7.676 47.535-8.815 26.995-1.231 35.092-1.492 103.447-1.492z"/><path d="M300 385.332c-47.13 0-85.334-38.205-85.334-85.333 0-47.129 38.205-85.333 85.334-85.333 47.127 0 85.332 38.204 85.332 85.333 0 47.128-38.205 85.333-85.332 85.333zm0-216.792c-72.604 0-131.46 58.855-131.46 131.46 0 72.602 58.856 131.458 131.46 131.458 72.602 0 131.458-58.856 131.458-131.459 0-72.604-58.856-131.46-131.458-131.46zm167.372-5.194c0 16.966-13.754 30.72-30.72 30.72s-30.72-13.754-30.72-30.72 13.754-30.72 30.72-30.72 30.72 13.754 30.72 30.72z"/></svg><svg baseProfile="tiny" version="1.2" viewBox="0 0 24 24" id="link" xmlns="http://www.w3.org/2000/svg"><path d="M8 19H5V9h3v10zm11 0h-3v-5.342c0-1.392-.496-2.085-1.479-2.085-.779 0-1.273.388-1.521 1.165V19h-3s.04-9 0-10h2.368l.183 2h.062c.615-1 1.598-1.678 2.946-1.678 1.025 0 1.854.285 2.487 1.001.637.717.954 1.679.954 3.03V19z"/><ellipse cx="6.5" cy="6.5" rx="1.55" ry="1.5"/></svg><svg viewBox="0 0 487.2 487.2" id="portfolio" xmlns="http://www.w3.org/2000/svg"><path d="M0 322.55V88.35c0-18.4 14.9-33.4 33.4-33.4h346.5c18.4 0 33.4 14.9 33.4 33.4v134.5c-5.3-.7-10.7-1.1-16.1-1.1-10.1 0-20 1.3-29.4 3.6v-124.9H45.5v209.5h235.6c-2.8 10.3-4.4 21-4.4 32.2 0 4.6.3 9.2.8 13.7H244v37.2h26.5c4.4 0 8 3.6 8 8v23.2c0 4.4-3.6 8-8 8H142.8c-4.4 0-8-3.6-8-8v-23.2c0-4.4 3.6-8 8-8h26.5v-37.2H33.4c-18.5 0-33.4-14.9-33.4-33.3zm487.2 19.7c0 49.7-40.3 90-90 90s-90-40.3-90-90 40.3-90 90-90 90 40.3 90 90zm-53.3-28.2c-4.7-4.8-12.4-4.8-17.2 0l-31 30.8-8-8.1c-4.7-4.8-12.4-4.8-17.2 0-4.8 4.7-4.8 12.4-.1 17.2l16.6 16.7c2.3 2.3 5.4 3.6 8.6 3.6 3.2 0 6.3-1.3 8.6-3.5l39.6-39.4c4.8-4.9 4.8-12.6.1-17.3z"/></svg><svg viewBox="0 0 16 16" id="services" xmlns="http://www.w3.org/2000/svg"><path d="M12.5 9c-1 0-1.8.4-2.4 1L6.9 8.3c.1-.3.1-.5.1-.8v-.4l2.9-1.3c.6.7 1.5 1.2 2.6 1.2C14.4 7 16 5.4 16 3.5S14.4 0 12.5 0 9 1.6 9 3.5v.4L6.1 5.2C5.5 4.5 4.6 4 3.5 4 1.6 4 0 5.6 0 7.5S1.6 11 3.5 11c1 0 1.8-.4 2.4-1L9 11.7v.8c0 1.9 1.6 3.5 3.5 3.5s3.5-1.6 3.5-3.5S14.4 9 12.5 9zm0-8C13.9 1 15 2.1 15 3.5S13.9 6 12.5 6 10 4.9 10 3.5 11.1 1 12.5 1zm-9 9C2.1 10 1 8.9 1 7.5S2.1 5 3.5 5 6 6.1 6 7.5 4.9 10 3.5 10zm9 5c-1.4 0-2.5-1.1-2.5-2.5s1.1-2.5 2.5-2.5 2.5 1.1 2.5 2.5-1.1 2.5-2.5 2.5z"/></svg><svg version="1.0" viewBox="0 0 100 100" id="telegram" xmlns="http://www.w3.org/2000/svg"><path d="M84.16 14.148l-71.047 29.57s-3.359 1.221-3.099 3.473c.267 2.256 3.008 3.288 3.008 3.288l17.877 6.382s5.396 18.772 6.458 22.344c1.062 3.562 1.914 3.646 1.914 3.646.989.456 1.888-.27 1.888-.27l11.55-11.169L70.71 86.054c4.869 2.253 6.641-2.441 6.641-2.441L90 15.935c0-4.508-5.84-1.787-5.84-1.787zM71.582 78.17L52.324 62.51l-5.976 5.777 1.314-12.291 25.67-24.329-34.991 20.774-15.521-5.54 59.217-24.648L71.582 78.17z"/></svg><svg viewBox="1 -104 511.999 511" id="vk" xmlns="http://www.w3.org/2000/svg"><path d="M456.738 202.102l-.277-.258c-4.371-4.035-17.762-17.067-22.277-22.762-5.301-7.105-4.079-11.762-.106-18.738 5.02-8.817 15.078-22.34 25.723-36.66 34.094-45.852 56.105-77.594 51.574-100.141L508.934 11.5l-125.91.055c-.442 1.187-7.012 30.05-34.739 79.199-20.105 35.637-33.293 46.832-37.937 48.808l-.72-.218c-1.51-1.867-4.151-6.906-5.237-19.895-1.133-13.605-.13-30.078.843-46.008 1.137-18.68 2.118-34.812-.23-46.355L301.18 8.28c-4.621-.738-21.54-7.265-68.676-7.761-40.809-.418-52.797 5.476-58.684 10.671l-19.472 17.184 24.613 8.281c9.367 3.153 12.476 6.79 15.027 24.817 1.664 11.75 2.535 31.496.739 49.125-2.582 25.277-8.774 29.98-9.094 30.23-1.067-.363-10.11-4.32-25.809-37.512-10.89-23.02-20.437-50.25-27.414-70.132-7.984-22.77-6.547-17.922-10.598-28.68L0 4.5l7.883 20.39c32.863 85.09 63.015 151.54 103.367 199.266 44.582 52.73 99.988 80.34 174.621 80.34h15v-15c0-14.023 1.16-24.121 3.649-31.777 1.52-4.664 3.539-8.52 5.66-12.563 3.148-5.953 6.226-8.504 7.906-8.883 1.523-.347 4.203.77 7.172 2.985 8.523 6.355 15.289 14.707 22.453 23.55 10.336 12.762 21.023 25.954 37.98 34.59 9.266 4.72 26.25 7.102 35.598 7.102l90.711-.004-.645-15.617c-.96-23.352-19.34-52.55-54.617-86.777zm-34.867 72.394h-.242c-6.445.106-18.746-2.008-22.324-3.828-11.274-5.742-19.153-15.473-28.282-26.738-8.011-9.895-16.296-20.125-27.832-28.723-9.328-6.957-17.8-8.992-24.527-8.992-2.687 0-5.102.324-7.172.793-7.808 1.758-18.976 7.375-27.855 24.168-2.504 4.777-5.344 10.187-7.645 17.265-2.41 7.407-3.91 15.637-4.625 25.649-56.242-3.195-100.129-25.445-137.207-69.3-34.472-40.778-61.594-97.813-90.316-170.302l57.226.008c.942 2.645 1.957 5.543 3.035 8.613 7.52 21.45 17.82 50.82 29.957 75.868 17.38 35.867 33.25 51.863 51.458 51.863 9.09 0 17.242-3.852 23.574-11.145 9.027-10.394 14.27-27.55 16.027-52.453 1.387-19.637.098-39.195-1.426-49.972-1.257-8.868-3.05-18.176-7.425-26.516 18.644-.84 43.609.488 59.425 2.758 1.438 7.828.5 23.215-.406 38.101-2.191 35.961-4.453 73.07 14.582 90.434 3.348 3.055 6.899 4.691 7 4.758l9.688 2.972c3.738-1.152 25.39 9.832 66.39-61.718 13.137-22.926 25.367-49.344 31.953-66.598 15.274-.031 67.309.027 73.422.035-8.66 19.059-29.183 46.242-42.597 64.285-11.696 15.727-21.793 29.309-27.72 39.715-11.007 19.332-9.155 36.563 2.31 51.762l.18.234c6.398 8.145 22.198 23.223 25.476 26.262 23.742 23.05 35.183 39.61 40.629 50.738h-54.73zm0 0"/></svg></svg>